<svg viewBox="0 0 800 600" xmlns="http://www.w3.org/2000/svg">
  <!-- Background Elements -->
  <defs>
    <linearGradient id="bg-gradient" x1="0%" y1="0%" x2="100%" y2="100%">
      <stop offset="0%" stop-color="#f8fafc" stop-opacity="0.5"/>
      <stop offset="100%" stop-color="#e2e8f0" stop-opacity="0.5"/>
    </linearGradient>
  </defs>
  
  <!-- Main Illustration -->
  <g class="main-content">
    <!-- Web Development -->
    <g transform="translate(200,100)">
      <rect width="300" height="200" rx="10" fill="#ffffff" stroke="#00b22d" stroke-width="2"/>
      <rect width="300" height="30" rx="10" fill="#00b22d" opacity="0.1"/>
      <circle cx="20" cy="15" r="5" fill="#00b22d"/>
      <circle cx="40" cy="15" r="5" fill="#00b22d"/>
      <circle cx="60" cy="15" r="5" fill="#00b22d"/>
      
      <!-- Code Elements -->
      <g transform="translate(30,60)">
        <rect width="240" height="20" rx="4" fill="#f1f5f9"/>
        <rect width="180" height="20" rx="4" fill="#f1f5f9" y="30"/>
        <rect width="200" height="20" rx="4" fill="#f1f5f9" y="60"/>
      </g>
    </g>

    <!-- Graphic Design -->
    <g transform="translate(500,200)">
      <circle cx="0" cy="0" r="80" fill="#ffffff" stroke="#00b22d" stroke-width="2"/>
      <path d="M-40 -40 L40 40" stroke="#00b22d" stroke-width="2"/>
      <path d="M-40 40 L40 -40" stroke="#00b22d" stroke-width="2"/>
      <circle cx="0" cy="0" r="30" fill="none" stroke="#00b22d" stroke-width="2"/>
    </g>

    <!-- Digital Marketing -->
    <g transform="translate(250,400)">
      <path d="M0 0 L100 0 L50 -80 Z" fill="#ffffff" stroke="#00b22d" stroke-width="2"/>
      <circle cx="50" cy="-30" r="20" fill="none" stroke="#00b22d" stroke-width="2"/>
      <circle cx="50" cy="-30" r="10" fill="none" stroke="#00b22d" stroke-width="2"/>
      <circle cx="50" cy="-30" r="3" fill="#00b22d"/>
    </g>
  </g>

  <!-- Connecting Lines -->
  <g class="connections" stroke="#00b22d" stroke-width="1.5" opacity="0.2">
    <path d="M300 300 Q400 200 500 300" fill="none" stroke-dasharray="4 4"/>
    <path d="M300 300 Q400 400 500 300" fill="none" stroke-dasharray="4 4"/>
  </g>

  <!-- Decorative Elements -->
  <g class="decorative" opacity="0.1">
    <circle cx="100" cy="100" r="5" fill="#00b22d"/>
    <circle cx="700" cy="100" r="5" fill="#00b22d"/>
    <circle cx="100" cy="500" r="5" fill="#00b22d"/>
    <circle cx="700" cy="500" r="5" fill="#00b22d"/>
  </g>
</svg> 