<svg viewBox="0 0 800 800" xmlns="http://www.w3.org/2000/svg">
  <!-- Background Circles -->
  <circle cx="400" cy="400" r="380" fill="none" stroke="#00b22d" stroke-width="1" stroke-dasharray="4 4" opacity="0.1"/>
  <circle cx="400" cy="400" r="300" fill="none" stroke="#9ff105" stroke-width="1" stroke-dasharray="8 4" opacity="0.15"/>
  <circle cx="400" cy="400" r="220" fill="none" stroke="#00b22d" stroke-width="1" stroke-dasharray="4 4" opacity="0.1"/>
  
  <!-- Tech Grid -->
  <g opacity="0.08">
    <!-- Vertical Lines -->
    <line x1="400" y1="0" x2="400" y2="800" stroke="#00b22d" stroke-width="1"/>
    <line x1="200" y1="0" x2="200" y2="800" stroke="#00b22d" stroke-width="1"/>
    <line x1="600" y1="0" x2="600" y2="800" stroke="#00b22d" stroke-width="1"/>
    
    <!-- Horizontal Lines -->
    <line x1="0" y1="400" x2="800" y2="400" stroke="#00b22d" stroke-width="1"/>
    <line x1="0" y1="200" x2="800" y2="200" stroke="#00b22d" stroke-width="1"/>
    <line x1="0" y1="600" x2="800" y2="600" stroke="#00b22d" stroke-width="1"/>
  </g>

  <!-- Connection Points -->
  <g opacity="0.2">
    <circle cx="400" cy="200" r="8" fill="#9ff105"/>
    <circle cx="400" cy="600" r="8" fill="#9ff105"/>
    <circle cx="200" cy="400" r="8" fill="#9ff105"/>
    <circle cx="600" cy="400" r="8" fill="#9ff105"/>
    
    <!-- Diagonal Points -->
    <circle cx="250" cy="250" r="6" fill="#00b22d"/>
    <circle cx="550" cy="250" r="6" fill="#00b22d"/>
    <circle cx="250" cy="550" r="6" fill="#00b22d"/>
    <circle cx="550" cy="550" r="6" fill="#00b22d"/>
  </g>

  <!-- Connection Lines -->
  <g opacity="0.1">
    <path d="M400 200 Q400 300 300 400" stroke="#9ff105" stroke-width="2" fill="none"/>
    <path d="M400 200 Q400 300 500 400" stroke="#9ff105" stroke-width="2" fill="none"/>
    <path d="M400 600 Q400 500 300 400" stroke="#9ff105" stroke-width="2" fill="none"/>
    <path d="M400 600 Q400 500 500 400" stroke="#9ff105" stroke-width="2" fill="none"/>
  </g>

  <!-- Circuit Paths -->
  <g opacity="0.15">
    <path d="M250 250 L350 350" stroke="#00b22d" stroke-width="1" stroke-dasharray="4 4"/>
    <path d="M550 250 L450 350" stroke="#00b22d" stroke-width="1" stroke-dasharray="4 4"/>
    <path d="M250 550 L350 450" stroke="#00b22d" stroke-width="1" stroke-dasharray="4 4"/>
    <path d="M550 550 L450 450" stroke="#00b22d" stroke-width="1" stroke-dasharray="4 4"/>
  </g>

  <!-- Center Design -->
  <g opacity="0.2">
    <circle cx="400" cy="400" r="100" fill="none" stroke="#9ff105" stroke-width="2"/>
    <circle cx="400" cy="400" r="60" fill="none" stroke="#00b22d" stroke-width="1"/>
    <circle cx="400" cy="400" r="20" fill="none" stroke="#9ff105" stroke-width="1"/>
  </g>

  <!-- Decorative Elements -->
  <g opacity="0.1">
    <circle cx="400" cy="400" r="160" fill="none" stroke="#00b22d" stroke-width="1" stroke-dasharray="8 4"/>
    <circle cx="400" cy="400" r="140" fill="none" stroke="#9ff105" stroke-width="1" stroke-dasharray="4 4"/>
  </g>
</svg>
